<?xml version="1.0" encoding="UTF-8"?> <svg xmlns="http://www.w3.org/2000/svg" id="Layer_1" data-name="Layer 1" viewBox="0 0 544.64 42.79"><defs><style> .cls-1 { fill: none; stroke: #231f20; stroke-linecap: round; stroke-miterlimit: 10; stroke-width: 3px; } </style></defs><path class="cls-1" d="M85.42,40c0-4.83.3-9.72,0-14.55"></path><path class="cls-1" d="M85.42,40c0-4.83.3-9.72,0-14.55"></path><path class="cls-1" d="M157.24,28.74c-1.65,1.67-2.31,3.94-4.33,5.45-1.38,1.03-2.91,1.83-4.58,2.3-3.3.92-6.78.22-9.35-2.06-2.86-2.55-5.51-11.27-10.75-9.18-4.69,1.87-3.08,10.64-3.08,14.33"></path><path class="cls-1" d="M157.24,28.74c-1.65,1.67-2.31,3.94-4.33,5.45-1.38,1.03-2.91,1.83-4.58,2.3-3.3.92-6.78.22-9.35-2.06-2.86-2.55-5.51-11.27-10.75-9.18-4.69,1.87-3.08,10.64-3.08,14.33"></path><path class="cls-1" d="M156.23,1.93c-.88,12.17.87,25.05.86,37.22"></path><path class="cls-1" d="M156.23,1.93c-.88,12.17.87,25.05.86,37.22"></path><path class="cls-1" d="M173.94,22.46c-1.34-.29-2.83-.06-3.66,1.12-3.47,4.98,9.02,6.75,5.49,12.52-2.88,4.7-13.69,3.36-12.2-3.37"></path><path class="cls-1" d="M173.94,22.46c-1.34-.29-2.83-.06-3.66,1.12-3.47,4.98,9.02,6.75,5.49,12.52-2.88,4.7-13.69,3.36-12.2-3.37"></path><path class="cls-1" d="M95.13,31.49c.85-.25,1.61-.74,2.34-1.24.38-.25.77-.49,1.13-.76,1.15-.89,2.27-2.93,1.16-4.25-1.36-1.6-4.12-.46-4.78,1.17-.75,1.83-.54,4.36.07,6.2,1.01,3.04,3.84,4.66,7.01,3.96,2.31-.51,4.56-2.16,6.23-3.76,5.59-5.36,10.63-11.51,15.38-17.61,2.45-3.14,5.76-7.59,3.64-11.87-1.62-3.26-3.16.75-3.28,2.49-.38,5.86.44,11.59.76,17.42.17,3.07.19,6.14.07,9.21"></path><path class="cls-1" d="M95.13,31.49c.85-.25,1.61-.74,2.34-1.24.38-.25.77-.49,1.13-.76,1.15-.89,2.27-2.93,1.16-4.25-1.36-1.6-4.12-.46-4.78,1.17-.75,1.83-.54,4.36.07,6.2,1.01,3.04,3.84,4.66,7.01,3.96,2.31-.51,4.56-2.16,6.23-3.76,5.59-5.36,10.63-11.51,15.38-17.61,2.45-3.14,5.76-7.59,3.64-11.87-1.62-3.26-3.16.75-3.28,2.49-.38,5.86.44,11.59.76,17.42.17,3.07.19,6.14.07,9.21"></path><path class="cls-1" d="M75.92,7.49c-17.7-12.41-46.82.33-61.89,12.05-3.06,2.38-5.91,5.06-8.37,8.04-2.46,2.97-3.53,5.6-3.59,9.42"></path><path class="cls-1" d="M75.92,7.49c-17.7-12.41-46.82.33-61.89,12.05-3.06,2.38-5.91,5.06-8.37,8.04-2.46,2.97-3.53,5.6-3.59,9.42"></path><path class="cls-1" d="M83.55,25.17c-1.17,1.87-1.82,3.64-3.54,5.15-5.99,5.25-14.9,7.05-22.58,8.13-11.49,1.61-23.85,1.22-35.17-1.16-6.1-1.28-13.13-3.33-17.87-7.59"></path><path class="cls-1" d="M83.55,25.17c-1.17,1.87-1.82,3.64-3.54,5.15-5.99,5.25-14.9,7.05-22.58,8.13-11.49,1.61-23.85,1.22-35.17-1.16-6.1-1.28-13.13-3.33-17.87-7.59"></path><path class="cls-1" d="M2.07,40.43c0-12.79-.56-25.57-.57-38.36"></path><path class="cls-1" d="M2.07,40.43c0-12.79-.56-25.57-.57-38.36"></path><path class="cls-1" d="M210.79,1.5c0,2.82,0,5.63,0,8.45,0,4.25.11,8.49.16,12.74.02,2.06.03,4.13,0,6.19-.06,4.09-.16,8.17-.16,12.27"></path><path class="cls-1" d="M210.79,1.5c0,2.82,0,5.63,0,8.45,0,4.25.11,8.49.16,12.74.02,2.06.03,4.13,0,6.19-.06,4.09-.16,8.17-.16,12.27"></path><path class="cls-1" d="M283.19,5.78c-20.6-11-45.63,1.13-60.8,16.02-4.48,4.39-7.88,9.58-11.31,14.79"></path><path class="cls-1" d="M283.19,5.78c-20.6-11-45.63,1.13-60.8,16.02-4.48,4.39-7.88,9.58-11.31,14.79"></path><path class="cls-1" d="M294.85,40.43c.25-4.94-2.56-38.6,3.81-36.72.27.28.62.59.87.85,3.12,8.17-15.07,23.99-21.63,27.92-10.31,6.18-30.2,7.28-41.71,4.4-6.76-1.69-12.9-4.97-18.49-8.86"></path><path class="cls-1" d="M294.85,40.43c.25-4.94-2.56-38.6,3.81-36.72.27.28.62.59.87.85,3.12,8.17-15.07,23.99-21.63,27.92-10.31,6.18-30.2,7.28-41.71,4.4-6.76-1.69-12.9-4.97-18.49-8.86"></path><path class="cls-1" d="M398.49,40.86c.25-6.25.38-16.69-5.34-21.01-2.02-1.52-4.58-1.96-7.06-1.92-5.29.09-10.37,1.74-15.22,3.69-7.94,3.19-14.15,8.54-21.35,12.98-1.95,1.2-4.06,2.23-6.36,2.54-6.74.94-8.92-6.39-9.44-11.7"></path><path class="cls-1" d="M398.49,40.86c.25-6.25.38-16.69-5.34-21.01-2.02-1.52-4.58-1.96-7.06-1.92-5.29.09-10.37,1.74-15.22,3.69-7.94,3.19-14.15,8.54-21.35,12.98-1.95,1.2-4.06,2.23-6.36,2.54-6.74.94-8.92-6.39-9.44-11.7"></path><path class="cls-1" d="M306.51,24.6c-3.43,4.68-4.68,14.05,3.27,14.49,5.24.29,11.33-4.84,15.35-7.66,2.69-1.89,5.1-3.95,7.29-6.39"></path><path class="cls-1" d="M306.51,24.6c-3.43,4.68-4.68,14.05,3.27,14.49,5.24.29,11.33-4.84,15.35-7.66,2.69-1.89,5.1-3.95,7.29-6.39"></path><path class="cls-1" d="M398.05,30.73c3.75-2.51,5.36,1.14,7.57,3.71,2.07,2.41,5.53,4.84,8.84,4.7"></path><path class="cls-1" d="M398.05,30.73c3.75-2.51,5.36,1.14,7.57,3.71,2.07,2.41,5.53,4.84,8.84,4.7"></path><path class="cls-1" d="M419.64,4.92c0,5.36.33,10.72.51,16.08.13,3.67.1,7.13,0,10.82-.09,3.06-.21,6.12-.22,9.19"></path><path class="cls-1" d="M419.64,4.92c0,5.36.33,10.72.51,16.08.13,3.67.1,7.13,0,10.82-.09,3.06-.21,6.12-.22,9.19"></path><path class="cls-1" d="M446.42,24.17c1.88-.5.49-1.46-.59-1.64-1.25-.21-2.72-.12-3.98.05-4.4.59-8.67,1.77-12.61,3.84-2.96,1.55-7.17,5.96-5.04,9.47,2.02,3.32,7.68,3.86,11.19,3.87,3.59.01,7.2-.1,10.75-.57,9.36-1.23,18.6-3.38,26.98-7.82,1.13-1.61,2.74-3.05,3.7-4.75.67-1.19,1.53-4.98-.55-5.48-3.21-.77-2.69,8.93-2.45,10.61.27,1.94,1.27,4.26,2.99,5.4,4.62,3.04,10.68-2.58,14.43-5.03,7.47-4.89,24.27-16.17,33.08-9.5,5.18,3.93,5.13,12.93,4.15,18.66"></path><path class="cls-1" d="M446.42,24.17c1.88-.5.49-1.46-.59-1.64-1.25-.21-2.72-.12-3.98.05-4.4.59-8.67,1.77-12.61,3.84-2.96,1.55-7.17,5.96-5.04,9.47,2.02,3.32,7.68,3.86,11.19,3.87,3.59.01,7.2-.1,10.75-.57,9.36-1.23,18.6-3.38,26.98-7.82,1.13-1.61,2.74-3.05,3.7-4.75.67-1.19,1.53-4.98-.55-5.48-3.21-.77-2.69,8.93-2.45,10.61.27,1.94,1.27,4.26,2.99,5.4,4.62,3.04,10.68-2.58,14.43-5.03,7.47-4.89,24.27-16.17,33.08-9.5,5.18,3.93,5.13,12.93,4.15,18.66"></path><path class="cls-1" d="M543.14,25.6c-1.69,2.61-4.51,5.86-8.46,5.17-1.48-.26-2.91-1.23-3.52-2.63-.58-1.33-.52-3.07.58-4.11"></path><path class="cls-1" d="M543.14,25.6c-1.69,2.61-4.51,5.86-8.46,5.17-1.48-.26-2.91-1.23-3.52-2.63-.58-1.33-.52-3.07.58-4.11"></path><path class="cls-1" d="M82.3,27.28c.57-.81.67-1.74,1.58-2.3.5-.31.95-.35,1.31.2.47.71.36,1.93.36,2.73"></path><path class="cls-1" d="M82.3,27.28c.57-.81.67-1.74,1.58-2.3.5-.31.95-.35,1.31.2.47.71.36,1.93.36,2.73"></path><path class="cls-1" d="M125.74,27.03c-1.26,1.87-.81,3.77-.81,5.88"></path><path class="cls-1" d="M125.74,27.03c-1.26,1.87-.81,3.77-.81,5.88"></path><path class="cls-1" d="M331.55,26.03c.58-.5.77-1.46,1.71-1.03,1.22.55.29,2.18.73,3.02"></path><path class="cls-1" d="M331.55,26.03c.58-.5.77-1.46,1.71-1.03,1.22.55.29,2.18.73,3.02"></path><path class="cls-1" d="M84,14.74c-.77-1.26,1.04-2.17,1.25-.82.04.25-.03.56-.23.74-.16.14-.89.31-1.03.08Z"></path><path class="cls-1" d="M84,14.74c-.77-1.26,1.04-2.17,1.25-.82.04.25-.03.56-.23.74-.16.14-.89.31-1.03.08Z"></path><path class="cls-1" d="M85.42,40c0-4.83.3-9.72,0-14.55"></path><path class="cls-1" d="M85.42,40c0-4.83.3-9.72,0-14.55"></path><path class="cls-1" d="M157.24,28.74c-1.65,1.67-2.31,3.94-4.33,5.45-1.38,1.03-2.91,1.83-4.58,2.3-3.3.92-6.78.22-9.35-2.06-2.86-2.55-5.51-11.27-10.75-9.18-4.69,1.87-3.08,10.64-3.08,14.33"></path><path class="cls-1" d="M157.24,28.74c-1.65,1.67-2.31,3.94-4.33,5.45-1.38,1.03-2.91,1.83-4.58,2.3-3.3.92-6.78.22-9.35-2.06-2.86-2.55-5.51-11.27-10.75-9.18-4.69,1.87-3.08,10.64-3.08,14.33"></path><path class="cls-1" d="M156.23,1.93c-.88,12.17.87,25.05.86,37.22"></path><path class="cls-1" d="M156.23,1.93c-.88,12.17.87,25.05.86,37.22"></path><path class="cls-1" d="M173.94,22.46c-1.34-.29-2.83-.06-3.66,1.12-3.47,4.98,9.02,6.75,5.49,12.52-2.88,4.7-13.69,3.36-12.2-3.37"></path><path class="cls-1" d="M173.94,22.46c-1.34-.29-2.83-.06-3.66,1.12-3.47,4.98,9.02,6.75,5.49,12.52-2.88,4.7-13.69,3.36-12.2-3.37"></path><path class="cls-1" d="M95.13,31.49c.85-.25,1.61-.74,2.34-1.24.38-.25.77-.49,1.13-.76,1.15-.89,2.27-2.93,1.16-4.25-1.36-1.6-4.12-.46-4.78,1.17-.75,1.83-.54,4.36.07,6.2,1.01,3.04,3.84,4.66,7.01,3.96,2.31-.51,4.56-2.16,6.23-3.76,5.59-5.36,10.63-11.51,15.38-17.61,2.45-3.14,5.76-7.59,3.64-11.87-1.62-3.26-3.16.75-3.28,2.49-.38,5.86.44,11.59.76,17.42.17,3.07.19,6.14.07,9.21"></path><path class="cls-1" d="M95.13,31.49c.85-.25,1.61-.74,2.34-1.24.38-.25.77-.49,1.13-.76,1.15-.89,2.27-2.93,1.16-4.25-1.36-1.6-4.12-.46-4.78,1.17-.75,1.83-.54,4.36.07,6.2,1.01,3.04,3.84,4.66,7.01,3.96,2.31-.51,4.56-2.16,6.23-3.76,5.59-5.36,10.63-11.51,15.38-17.61,2.45-3.14,5.76-7.59,3.64-11.87-1.62-3.26-3.16.75-3.28,2.49-.38,5.86.44,11.59.76,17.42.17,3.07.19,6.14.07,9.21"></path><path class="cls-1" d="M75.92,7.49c-17.7-12.41-46.82.33-61.89,12.05-3.06,2.38-5.91,5.06-8.37,8.04-2.46,2.97-3.53,5.6-3.59,9.42"></path><path class="cls-1" d="M75.92,7.49c-17.7-12.41-46.82.33-61.89,12.05-3.06,2.38-5.91,5.06-8.37,8.04-2.46,2.97-3.53,5.6-3.59,9.42"></path><path class="cls-1" d="M83.55,25.17c-1.17,1.87-1.82,3.64-3.54,5.15-5.99,5.25-14.9,7.05-22.58,8.13-11.49,1.61-23.85,1.22-35.17-1.16-6.1-1.28-13.13-3.33-17.87-7.59"></path><path class="cls-1" d="M83.55,25.17c-1.17,1.87-1.82,3.64-3.54,5.15-5.99,5.25-14.9,7.05-22.58,8.13-11.49,1.61-23.85,1.22-35.17-1.16-6.1-1.28-13.13-3.33-17.87-7.59"></path><path class="cls-1" d="M2.07,40.43c0-12.79-.56-25.57-.57-38.36"></path><path class="cls-1" d="M2.07,40.43c0-12.79-.56-25.57-.57-38.36"></path><path class="cls-1" d="M210.79,1.5c0,2.82,0,5.63,0,8.45,0,4.25.11,8.49.16,12.74.02,2.06.03,4.13,0,6.19-.06,4.09-.16,8.17-.16,12.27"></path><path class="cls-1" d="M210.79,1.5c0,2.82,0,5.63,0,8.45,0,4.25.11,8.49.16,12.74.02,2.06.03,4.13,0,6.19-.06,4.09-.16,8.17-.16,12.27"></path><path class="cls-1" d="M283.19,5.78c-20.6-11-45.63,1.13-60.8,16.02-4.48,4.39-7.88,9.58-11.31,14.79"></path><path class="cls-1" d="M283.19,5.78c-20.6-11-45.63,1.13-60.8,16.02-4.48,4.39-7.88,9.58-11.31,14.79"></path><path class="cls-1" d="M294.85,40.43c.25-4.94-2.56-38.6,3.81-36.72.27.28.62.59.87.85,3.12,8.17-15.07,23.99-21.63,27.92-10.31,6.18-30.2,7.28-41.71,4.4-6.76-1.69-12.9-4.97-18.49-8.86"></path><path class="cls-1" d="M294.85,40.43c.25-4.94-2.56-38.6,3.81-36.72.27.28.62.59.87.85,3.12,8.17-15.07,23.99-21.63,27.92-10.31,6.18-30.2,7.28-41.71,4.4-6.76-1.69-12.9-4.97-18.49-8.86"></path><path class="cls-1" d="M398.49,40.86c.25-6.25.38-16.69-5.34-21.01-2.02-1.52-4.58-1.96-7.06-1.92-5.29.09-10.37,1.74-15.22,3.69-7.94,3.19-14.15,8.54-21.35,12.98-1.95,1.2-4.06,2.23-6.36,2.54-6.74.94-8.92-6.39-9.44-11.7"></path><path class="cls-1" d="M398.49,40.86c.25-6.25.38-16.69-5.34-21.01-2.02-1.52-4.58-1.96-7.06-1.92-5.29.09-10.37,1.74-15.22,3.69-7.94,3.19-14.15,8.54-21.35,12.98-1.95,1.2-4.06,2.23-6.36,2.54-6.74.94-8.92-6.39-9.44-11.7"></path><path class="cls-1" d="M306.51,24.6c-3.43,4.68-4.68,14.05,3.27,14.49,5.24.29,11.33-4.84,15.35-7.66,2.69-1.89,5.1-3.95,7.29-6.39"></path><path class="cls-1" d="M306.51,24.6c-3.43,4.68-4.68,14.05,3.27,14.49,5.24.29,11.33-4.84,15.35-7.66,2.69-1.89,5.1-3.95,7.29-6.39"></path><path class="cls-1" d="M398.05,30.73c3.75-2.51,5.36,1.14,7.57,3.71,2.07,2.41,5.53,4.84,8.84,4.7"></path><path class="cls-1" d="M398.05,30.73c3.75-2.51,5.36,1.14,7.57,3.71,2.07,2.41,5.53,4.84,8.84,4.7"></path><path class="cls-1" d="M419.64,4.92c0,5.36.33,10.72.51,16.08.13,3.67.1,7.13,0,10.82-.09,3.06-.21,6.12-.22,9.19"></path><path class="cls-1" d="M419.64,4.92c0,5.36.33,10.72.51,16.08.13,3.67.1,7.13,0,10.82-.09,3.06-.21,6.12-.22,9.19"></path><path class="cls-1" d="M446.42,24.17c1.88-.5.49-1.46-.59-1.64-1.25-.21-2.72-.12-3.98.05-4.4.59-8.67,1.77-12.61,3.84-2.96,1.55-7.17,5.96-5.04,9.47,2.02,3.32,7.68,3.86,11.19,3.87,3.59.01,7.2-.1,10.75-.57,9.36-1.23,18.6-3.38,26.98-7.82,1.13-1.61,2.74-3.05,3.7-4.75.67-1.19,1.53-4.98-.55-5.48-3.21-.77-2.69,8.93-2.45,10.61.27,1.94,1.27,4.26,2.99,5.4,4.62,3.04,10.68-2.58,14.43-5.03,7.47-4.89,24.27-16.17,33.08-9.5,5.18,3.93,5.13,12.93,4.15,18.66"></path><path class="cls-1" d="M446.42,24.17c1.88-.5.49-1.46-.59-1.64-1.25-.21-2.72-.12-3.98.05-4.4.59-8.67,1.77-12.61,3.84-2.96,1.55-7.17,5.96-5.04,9.47,2.02,3.32,7.68,3.86,11.19,3.87,3.59.01,7.2-.1,10.75-.57,9.36-1.23,18.6-3.38,26.98-7.82,1.13-1.61,2.74-3.05,3.7-4.75.67-1.19,1.53-4.98-.55-5.48-3.21-.77-2.69,8.93-2.45,10.61.27,1.94,1.27,4.26,2.99,5.4,4.62,3.04,10.68-2.58,14.43-5.03,7.47-4.89,24.27-16.17,33.08-9.5,5.18,3.93,5.13,12.93,4.15,18.66"></path><path class="cls-1" d="M543.14,25.6c-1.69,2.61-4.51,5.86-8.46,5.17-1.48-.26-2.91-1.23-3.52-2.63-.58-1.33-.52-3.07.58-4.11"></path><path class="cls-1" d="M543.14,25.6c-1.69,2.61-4.51,5.86-8.46,5.17-1.48-.26-2.91-1.23-3.52-2.63-.58-1.33-.52-3.07.58-4.11"></path><path class="cls-1" d="M82.3,27.28c.57-.81.67-1.74,1.58-2.3.5-.31.95-.35,1.31.2.47.71.36,1.93.36,2.73"></path><path class="cls-1" d="M82.3,27.28c.57-.81.67-1.74,1.58-2.3.5-.31.95-.35,1.31.2.47.71.36,1.93.36,2.73"></path><path class="cls-1" d="M125.74,27.03c-1.26,1.87-.81,3.77-.81,5.88"></path><path class="cls-1" d="M125.74,27.03c-1.26,1.87-.81,3.77-.81,5.88"></path><path class="cls-1" d="M331.55,26.03c.58-.5.77-1.46,1.71-1.03,1.22.55.29,2.18.73,3.02"></path><path class="cls-1" d="M331.55,26.03c.58-.5.77-1.46,1.71-1.03,1.22.55.29,2.18.73,3.02"></path><path class="cls-1" d="M84,14.74c-.77-1.26,1.04-2.17,1.25-.82.04.25-.03.56-.23.74-.16.14-.89.31-1.03.08Z"></path><path class="cls-1" d="M84,14.74c-.77-1.26,1.04-2.17,1.25-.82.04.25-.03.56-.23.74-.16.14-.89.31-1.03.08Z"></path></svg> 